{
  "accessors": [
    {
      "bufferView": 2,
      "componentType": 5126,
      "count": 6084,
      "max": [
        43.79714584350586,
        13.632296562194824,
        49.1796760559082
      ],
      "min": [
        -33.37423324584961,
        -20.3715877532959,
        -59.36903381347656
      ],
      "type": "VEC3"
    },
    {
      "bufferView": 2,
      "byteOffset": 73008,
      "componentType": 5126,
      "count": 6084,
      "max": [
        0.999984622001648,
        1.0,
        0.9999489188194275
      ],
      "min": [
        -0.999984622001648,
        -0.9999226331710815,
        -1.0
      ],
      "type": "VEC3"
    },
    {
      "bufferView": 3,
      "componentType": 5126,
      "count": 6084,
      "max": [
        1.0,
        0.9999983906745911,
        0.9901389479637146,
        1.0
      ],
      "min": [
        -0.9999085664749146,
        -0.9999990463256836,
        -0.9976983070373535,
        -1.0
      ],
      "type": "VEC4"
    },
    {
      "bufferView": 1,
      "componentType": 5126,
      "count": 6084,
      "max": [
        0.979849100112915,
        0.9801033139228821
      ],
      "min": [
        0.014852505177259445,
        0.017562173306941986
      ],
      "type": "VEC2"
    },
    {
      "bufferView": 0,
      "componentType": 5125,
      "count": 21696,
      "type": "SCALAR"
    }
  ],
  "asset": {
    "extras": {
      "author": "NikolasKapa_19 (https://sketchfab.com/NikolasKapa_19)",
      "license": "CC-BY-4.0 (http://creativecommons.org/licenses/by/4.0/)",
      "source": "https://sketchfab.com/3d-models/golem-2ba27a670a5b4f51859255d9e41ebc9e",
      "title": "Golem"
    },
    "generator": "Sketchfab-12.67.0",
    "version": "2.0"
  },
  "bufferViews": [
    {
      "buffer": 0,
      "byteLength": 86784,
      "name": "floatBufferViews",
      "target": 34963
    },
    {
      "buffer": 0,
      "byteLength": 48672,
      "byteOffset": 86784,
      "byteStride": 8,
      "name": "floatBufferViews",
      "target": 34962
    },
    {
      "buffer": 0,
      "byteLength": 146016,
      "byteOffset": 135456,
      "byteStride": 12,
      "name": "floatBufferViews",
      "target": 34962
    },
    {
      "buffer": 0,
      "byteLength": 97344,
      "byteOffset": 281472,
      "byteStride": 16,
      "name": "floatBufferViews",
      "target": 34962
    }
  ],
  "buffers": [
    {
      "byteLength": 378816,
      "uri": "scene.bin"
    }
  ],
  "images": [
    {
      "uri": "textures/Scene_-_Root_baseColor.png"
    },
    {
      "uri": "textures/Scene_-_Root_metallicRoughness.png"
    },
    {
      "uri": "textures/Scene_-_Root_emissive.png"
    },
    {
      "uri": "textures/Scene_-_Root_normal.png"
    }
  ],
  "materials": [
    {
      "doubleSided": true,
      "emissiveFactor": [
        1.0,
        1.0,
        1.0
      ],
      "emissiveTexture": {
        "index": 2
      },
      "name": "Scene_-_Root",
      "normalTexture": {
        "index": 3
      },
      "pbrMetallicRoughness": {
        "baseColorTexture": {
          "index": 0
        },
        "metallicRoughnessTexture": {
          "index": 1
        }
      }
    }
  ],
  "meshes": [
    {
      "name": "Golem__0",
      "primitives": [
        {
          "attributes": {
            "NORMAL": 1,
            "POSITION": 0,
            "TANGENT": 2,
            "TEXCOORD_0": 3
          },
          "indices": 4,
          "material": 0,
          "mode": 4
        }
      ]
    }
  ],
  "nodes": [
    {
      "children": [
        1
      ],
      "matrix": [
        0.9905409216880798,
        3.0468410387447624e-17,
        -0.13721752166748047,
        0.0,
        -0.13721752166748047,
        2.1994426761830606e-16,
        -0.9905409216880798,
        0.0,
        0.0,
        1.0,
        2.220446049250313e-16,
        0.0,
        1.619405054498202e-07,
        -7.918040505950828e-23,
        3.565968427210464e-07,
        1.0
      ],
      "name": "Sketchfab_model"
    },
    {
      "children": [
        2
      ],
      "matrix": [
        0.02539999969303608,
        0.0,
        0.0,
        0.0,
        0.0,
        0.0,
        0.02539999969303608,
        0.0,
        0.0,
        -0.02539999969303608,
        0.0,
        0.0,
        0.0,
        0.0,
        0.0,
        1.0
      ],
      "name": "4730f31a15ea4219988a2949290959ce.fbx"
    },
    {
      "children": [
        3
      ],
      "name": "RootNode"
    },
    {
      "children": [
        4
      ],
      "matrix": [
        1.0,
        0.0,
        0.0,
        0.0,
        0.0,
        3.1911473949905174e-16,
        -1.4371650218963623,
        0.0,
        0.0,
        1.0,
        2.220446049250313e-16,
        0.0,
        0.0,
        54.228843688964844,
        0.0,
        1.0
      ],
      "name": "Golem"
    },
    {
      "children": [
        5
      ],
      "matrix": [
        1.0,
        0.0,
        -0.0,
        0.0,
        0.0,
        1.0,
        0.0,
        0.0,
        0.0,
        0.0,
        1.0,
        0.0,
        -5.211456298828125,
        3.369645595550537,
        5.094676971435547,
        1.0
      ],
      "name": "Object_4"
    },
    {
      "mesh": 0,
      "name": "Golem__0"
    }
  ],
  "samplers": [
    {
      "magFilter": 9729,
      "minFilter": 9987,
      "wrapS": 10497,
      "wrapT": 10497
    }
  ],
  "scene": 0,
  "scenes": [
    {
      "name": "Sketchfab_Scene",
      "nodes": [
        0
      ]
    }
  ],
  "textures": [
    {
      "sampler": 0,
      "source": 0
    },
    {
      "sampler": 0,
      "source": 1
    },
    {
      "sampler": 0,
      "source": 2
    },
    {
      "sampler": 0,
      "source": 3
    }
  ]
}
